<?xml version="1.0" standalone="no"?>
<!DOCTYPE svg PUBLIC "-//W3C//DTD SVG 20010904//EN"
 "http://www.w3.org/TR/2001/REC-SVG-20010904/DTD/svg10.dtd">
<svg version="1.0" xmlns="http://www.w3.org/2000/svg"
 width="16.000000pt" height="16.000000pt" viewBox="0 0 16.000000 16.000000"
 preserveAspectRatio="xMidYMid meet">
<metadata>
Created by potrace 1.11, written by Peter Selinger 2001-2013
</metadata>
<g transform="translate(0.000000,16.000000) scale(0.008889,-0.008889)"
fill="#000000" stroke="none">
<path d="M1201 1743 c-23 -22 -441 -730 -441 -748 0 -5 172 -107 175 -103 1 2
97 169 214 373 218 378 229 403 202 454 -14 26 -61 51 -95 51 -14 0 -39 -12
-55 -27z"/>
<path d="M925 1746 c-25 -11 -61 -66 -208 -321 -98 -169 -177 -308 -175 -309
30 -19 148 -86 156 -88 12 -3 348 569 359 611 18 70 -65 136 -132 107z"/>
<path d="M1366 1508 c-14 -13 -104 -159 -200 -326 -97 -166 -178 -307 -181
-311 -3 -5 25 -26 62 -47 38 -20 78 -43 89 -51 21 -13 27 -4 204 303 121 209
183 327 183 346 0 86 -97 139 -157 86z"/>
<path d="M1396 1048 c-24 -22 -186 -291 -186 -309 0 -7 87 -61 157 -98 20 -10
26 -3 107 139 88 153 98 183 74 235 -25 54 -108 72 -152 33z"/>
<path d="M535 793 c-14 -65 -30 -129 -34 -142 -8 -26 -10 -27 -173 -76 -49
-14 -88 -29 -88 -33 0 -4 56 -41 125 -82 l125 -75 0 -144 0 -143 44 38 c25 22
74 65 111 98 l65 59 132 -46 c72 -26 134 -44 137 -42 2 3 -23 63 -56 134 l-61
129 85 117 c46 64 83 119 80 121 -2 2 -66 -3 -142 -12 -115 -13 -140 -13 -146
-2 -23 38 -161 218 -168 218 -5 0 -21 -53 -36 -117z"/>
</g>
</svg>
